<svg xmlns="http://www.w3.org/2000/svg" xmlns:xlink="http://www.w3.org/1999/xlink" width="32" height="32" viewBox="0 0 32 32">
    <defs>
        <path id="prefix__a" d="M17 5c.552 0 1 .448 1 1v10h10c.552 0 1 .448 1 1s-.448 1-1 1H17.999L18 28c0 .552-.448 1-1 1s-1-.448-1-1l-.001-10H6c-.552 0-1-.448-1-1s.448-1 1-1h10V6c0-.552.448-1 1-1z"/>
    </defs>
    <g fill="none" fill-rule="evenodd" transform="translate(-1 -1)">
        <mask id="prefix__b" fill="#fff">
            <use xlink:href="#prefix__a"/>
        </mask>
        <g fill="#DBEEFB" mask="url(#prefix__b)" opacity=".8">
            <path d="M0 0H18V18H0z" transform="translate(8 8)"/>
        </g>
    </g>
</svg>
